<svg width="231" height="78" viewBox="0 0 231 78" fill="none" xmlns="http://www.w3.org/2000/svg">
<path d="M34.3973 67.875C26.0359 67.875 18.5032 66.95 11.7739 60.275L20.4366 51.65C24.8307 56.025 30.5305 56.625 34.5982 56.625C39.1931 56.625 43.9639 55.1 43.9639 51.15C43.9639 48.5 42.5327 46.675 38.3645 46.275L30.0032 45.475C20.4366 44.55 14.5108 40.4 14.5108 30.675C14.5108 19.725 24.203 13.825 34.9999 13.825C43.2608 13.825 50.191 15.25 55.2881 20.025L47.1276 28.25C44.0643 25.5 39.394 24.7 34.799 24.7C29.501 24.7 27.2663 27.125 27.2663 29.775C27.2663 31.7 28.0698 33.925 32.7652 34.35L41.1265 35.15C51.6222 36.175 56.9202 41.75 56.9202 50.675C56.9202 62.3 46.9268 67.875 34.3973 67.875Z" fill="#FF003D"/>
<path d="M138.726 44.95C138.726 51.75 142.894 56.725 150.352 56.725C156.152 56.725 159.014 55.1 162.379 51.75L170.439 59.55C165.04 64.925 159.843 67.875 150.251 67.875C137.722 67.875 125.694 62.2 125.694 40.775C125.694 23.525 135.06 13.8 148.82 13.8C163.584 13.8 171.945 24.55 171.945 39.05V44.925H138.726V44.95ZM157.683 30.25C156.252 27.1 153.289 24.775 148.82 24.775C144.35 24.775 141.388 27.1 139.956 30.25C139.153 32.175 138.826 33.6 138.726 35.925H158.914C158.813 33.6 158.512 32.175 157.683 30.25Z" fill="#FF003D"/>
<path d="M191.782 44.95C191.782 51.75 195.95 56.725 203.407 56.725C209.207 56.725 212.07 55.1 215.434 51.75L223.495 59.55C218.096 64.925 212.898 67.875 203.307 67.875C190.777 67.875 178.75 62.2 178.75 40.775C178.75 23.525 188.116 13.8 201.876 13.8C216.64 13.8 225.001 24.55 225.001 39.05V44.925H191.782V44.95ZM210.714 30.25C209.283 27.1 206.32 24.775 201.85 24.775C197.381 24.775 194.418 27.1 192.987 30.25C192.183 32.175 191.857 33.6 191.757 35.925H211.944C211.844 33.6 211.543 32.175 210.714 30.25Z" fill="#FF003D"/>
<path d="M128.958 15.625C126.899 13.65 124.715 12.275 121.275 11.4C115.751 9.99998 108.971 11.225 106.009 14.4H93.0774V67.25H106.335V31.55C106.335 24.85 110.83 21.8 114.897 21.8C118.061 21.8 119.794 22.85 121.727 24.75L128.958 15.625Z" fill="rgba(255,0,61,255)"/>
<path d="M86.4737 23.475V14.425H77.0829V10.125H63.8252V14.425H58.251V23.475H63.8503V52.175C63.8503 59.675 68.4453 67.3 79.2422 67.3H86.4737V56.15H81.6778C78.5141 56.15 77.0829 54.425 77.0829 51.375V23.475H86.4737Z" fill="rgba(255,0,61,255)"/>
</svg>
